#!OML:ASF H:\MichaelJackson\Top Level 1\Subject 1\Session 1\male.ASF
:FULLY-SPECIFIED
:DEGREES
793
root 5.40214 16.9521 1.59813 -174.526 237.187 -172.424
lowerback 8.6728 2.05525 -4.13416
upperback -0.227193 2.15954 -2.39802
thorax -5.1689 1.12945 -0.458765
lowerneck -5.97939 -9.17305 -2.88415
upperneck 1.4437 -12.2381 5.58035
head 2.04695 -6.01383 1.77576
rclavicle 2.13197e-014 2.44505e-014
rhumerus -4.08055 7.18397 -50.4119
rradius 90.4668
rwrist -2.80137
rhand -34.5135 -41.6716
rfingers 7.12502
rthumb -7.67525 288.488
lclavicle 2.13197e-014 2.44505e-014
lhumerus -20.189 -35.9177 28.3095
lradius 82.435
lwrist 30.7632
lhand -27.362 -4.30962
lfingers 7.12502
lthumb -0.769708 25.6687
rfemur -11.7525 -1.15749 0.97335
rtibia 26.0835
rfoot -8.59493 -13.4421
rtoes -33.6351
lfemur -50.6543 16.6787 26.0694
ltibia 128.513
lfoot -0.91367 -0.144634
ltoes 39.4444
794
root 5.43998 17.1561 1.82674 -174.645 239.461 -172.096
lowerback 8.66385 2.44476 -4.1835
upperback -0.224538 2.66235 -2.54877
thorax -5.16895 1.37524 -0.655344
lowerneck -6.06698 -9.16955 -2.95234
upperneck 1.4839 -12.2327 5.66041
head 2.08698 -6.00811 1.80751
rclavicle 5.68027e-014 -4.23411e-014
rhumerus -0.370901 7.21981 -50.4566
rradius 89.6713
rwrist -2.26823
rhand -34.9978 -40.3457
rfingers 7.12502
rthumb -8.14267 289.831
lclavicle 5.68027e-014 -4.23411e-014
lhumerus -19.6454 -35.5449 26.3135
lradius 81.7809
lwrist 28.2191
lhand -26.9534 -4.57908
lfingers 7.12502
lthumb -0.375056 25.4003
rfemur -9.88038 0.597029 0.0840053
rtibia 20.0699
rfoot -3.40842 -12.6041
rtoes -35.0503
lfemur -50.1758 16.3865 25.4711
ltibia 125.816
lfoot -0.905789 -1.05484
ltoes 37.7477
795
root 5.48075 17.3681 2.06591 -174.528 241.83 -171.888
lowerback 8.52187 2.82257 -4.1218
upperback -0.252018 3.17238 -2.65023
thorax -5.12 1.62313 -0.857378
lowerneck -6.18958 -9.16121 -3.03288
upperneck 1.52049 -12.2156 5.67199
head 2.12707 -5.99756 1.8187
rclavicle 5.85421e-014 1.49089e-014
rhumerus 3.36916 7.45834 -50.7883
rradius 88.7417
rwrist -1.79262
rhand -35.3321 -38.8769
rfingers 7.12502
rthumb -8.46532 291.313
lclavicle 5.85421e-014 1.49089e-014
lhumerus -19.5133 -35.1944 24.8357
lradius 81.1007
lwrist 25.6546
lhand -26.5153 -4.85736
lfingers 7.12502
lthumb 0.0480727 25.1224
rfemur -7.61122 2.26372 -0.758899
rtibia 12.6654
rfoot 3.18637 -11.5045
rtoes -35.7687
lfemur -49.5846 16.0697 24.7731
ltibia 122.86
lfoot -0.603189 -2.06386
ltoes 35.7013
796
root 5.52353 17.5837 2.31368 -174.156 244.273 -171.812
lowerback 8.24045 3.18911 -3.96435
upperback -0.309321 3.68841 -2.7086
thorax -5.01712 1.87318 -1.05916
lowerneck -6.34113 -9.15043 -3.10892
upperneck 1.55419 -12.1908 5.60399
head 2.1644 -5.98441 1.80306
rclavicle 2.15681e-014 -2.44505e-014
rhumerus 7.1155 7.91914 -51.392
rradius 87.6678
rwrist -1.39019
rhand -35.5201 -37.3518
rfingers 7.12502
rthumb -8.64675 292.845
lclavicle 2.15681e-014 -2.44505e-014
lhumerus -19.7492 -34.8703 23.8512
lradius 80.4259
lwrist 23.4012
lhand -26.0556 -5.19061
lfingers 7.12502
lthumb 0.49201 24.7886
rfemur -2.99689 1.99969 -1.45495
rtibia 1.74931e-014
rfoot 12.6402 -8.21644
rtoes -35.5258
lfemur -48.9307 15.7361 24.0147
ltibia 119.708
lfoot -0.114333 -2.99115
ltoes 33.5415
797
root 5.56698 17.7993 2.56778 -173.564 246.766 -171.84
lowerback 7.833 3.54389 -3.75349
upperback -0.393775 4.20308 -2.73126
thorax -4.86624 2.12298 -1.24169
lowerneck -6.49978 -9.13734 -3.18542
upperneck 1.58298 -12.1586 5.46462
head 2.19545 -5.96918 1.76506
rclavicle 6.84813e-014 -2.16675e-014
rhumerus 10.8198 8.64002 -52.2324
rradius 86.4684
rwrist -1.08725
rhand -35.5655 -35.8715
rfingers 7.12502
rthumb -8.69055 294.327
lclavicle 6.84813e-014 -2.16675e-014
lhumerus -20.3184 -34.594 23.3334
lradius 79.7733
lwrist 21.6338
lhand -25.6043 -5.55309
lfingers 7.12502
lthumb 0.927892 24.4246
rfemur -4.75715 1.71951 -2.00533
rtibia 1.27222e-014
rfoot 15.9784 -6.93542
rtoes -33.9975
lfemur -48.234 15.3638 23.2102
ltibia 116.405
lfoot 0.46061 -3.67497
ltoes 31.4286
798
root 5.61028 18.0115 2.82587 -172.813 249.264 -171.937
lowerback 7.34009 3.88162 -3.52319
upperback -0.50081 4.70173 -2.72678
thorax -4.6871 2.36603 -1.39369
lowerneck -6.65896 -9.1252 -3.26443
upperneck 1.6104 -12.1243 5.2719
head 2.22208 -5.95433 1.71071
rclavicle -5.86166e-014 2.3059e-014
rhumerus 14.4254 9.64468 -53.2749
rradius 85.1642
rwrist -0.916519
rhand -35.5223 -34.5231
rfingers 7.12502
rthumb -8.64879 295.674
lclavicle -5.86166e-014 2.3059e-014
lhumerus -21.1586 -34.3931 23.2349
lradius 79.1389
lwrist 20.464
lhand -25.2299 -5.85925
lfingers 7.12502
lthumb 1.28952 24.1166
rfemur -6.56847 1.39987 -2.41173
rtibia -1.43125e-014
rfoot 19.2331 -6.71656
rtoes -31.1029
lfemur -47.5212 14.8916 22.3765
ltibia 112.983
lfoot 1.05407 -4.05691
ltoes 29.5919
799
root 5.65259 18.2182 3.08638 -172.005 251.718 -172.045
lowerback 6.80959 4.18868 -3.29275
upperback -0.615372 5.16032 -2.70744
thorax -4.49194 2.59039 -1.51647
lowerneck -6.80159 -9.11524 -3.35288
upperneck 1.62802 -12.0908 5.06048
head 2.24183 -5.94099 1.65301
rclavicle -5.39949e-014 -2.98177e-015
rhumerus 17.8812 10.9512 -54.4875
rradius 83.7912
rwrist -0.912789
rhand -35.3353 -33.3132
rfingers 7.12502
rthumb -8.46834 296.877
lclavicle -5.39949e-014 -2.98177e-015
lhumerus -22.2219 -34.2683 23.5003
lradius 78.5069
lwrist 19.9319
lhand -24.9223 -6.08611
lfingers 7.12502
lthumb 1.58662 23.8877
rfemur -8.29998 1.02295 -2.69264
rtibia -3.18055e-014
rfoot 21.8827 -7.96904
rtoes -26.3691
lfemur -46.7931 14.2475 21.5159
ltibia 109.462
lfoot 1.60387 -4.12462
ltoes 28.2443
800
root 5.69374 18.4175 3.34786 -171.319 254.076 -172.044
lowerback 6.31591 4.45337 -3.08954
upperback -0.725978 5.5561 -2.68435
thorax -4.31311 2.78474 -1.61036
lowerneck -6.92899 -9.11053 -3.45598
upperneck 1.64613 -12.0637 4.8615
head 2.26144 -5.9311 1.60206
rclavicle 2.95444e-014 -8.39865e-015
rhumerus 21.1194 12.567 -55.819
rradius 82.4073
rwrist -1.11285
rhand -35.0093 -32.3229
rfingers 7.12502
rthumb -8.15377 297.854
lclavicle 2.95444e-014 -8.39865e-015
lhumerus -23.4396 -34.2327 24.0737
lradius 77.8331
lwrist 19.9845
lhand -24.5945 -6.29269
lfingers 7.12502
lthumb 1.90321 23.6786
rfemur -9.83233 0.569606 -2.87988
rtibia -8.74653e-015
rfoot 23.4737 -10.7924
rtoes -19.3651
lfemur -46.0409 13.348 20.6242
ltibia 105.86
lfoot 2.03847 -3.8995
ltoes 27.3473
801
root 5.73406 18.607 3.6102 -170.932 256.29 -171.817
lowerback 5.93166 4.6682 -2.91197
upperback -0.821093 5.87615 -2.65917
thorax -4.1804 2.94207 -1.68465
lowerneck -7.03135 -9.12219 -3.58369
upperneck 1.65942 -12.0584 4.69971
head 2.28065 -5.93187 1.56697
rclavicle -1.30011e-013 1.28092e-014
rhumerus 24.0734 14.4784 -57.2059
rradius 81.0761
rwrist -1.51879
rhand -34.5609 -31.6363
rfingers 7.12502
rthumb -7.72099 298.525
lclavicle -1.30011e-013 1.28092e-014
lhumerus -24.774 -34.2762 24.9257
lradius 77.087
lwrist 20.4866
lhand -24.2713 -6.41182
lfingers 7.12502
lthumb 2.21537 23.5564
rfemur -11.0683 0.0228734 -3.00048
rtibia -2.8625e-014
rfoot 23.7172 -14.8504
rtoes -10.0177
lfemur -45.2569 12.1595 19.7155
ltibia 102.201
lfoot 2.30908 -3.49222
ltoes 26.9543
802
root 5.77413 18.7838 3.87309 -171.01 258.33 -171.247
lowerback 5.70968 4.83067 -2.74231
upperback -0.889238 6.11676 -2.63795
thorax -4.11008 3.05958 -1.76183
lowerneck -7.11876 -9.15632 -3.72235
upperneck 1.66498 -12.0844 4.5895
head 2.3008 -5.94756 1.54905
rclavicle 4.65405e-014 1.43125e-014
rhumerus 26.6936 16.6477 -58.6009
rradius 79.8634
rwrist -2.11758
rhand -33.9851 -31.2687
rfingers 7.12502
rthumb -7.16518 298.873
lclavicle 4.65405e-014 1.43125e-014
lhumerus -26.149 -34.3953 25.9927
lradius 76.2176
lwrist 21.256
lhand -23.9338 -6.41344
lfingers 7.12502
lthumb 2.54125 23.5512
rfemur -11.9475 -0.625867 -3.07527
rtibia 4.45278e-014
rfoot 22.7283 -19.2985
rtoes 0.155921
lfemur -44.4365 10.6973 18.8194
ltibia 98.5064
lfoot 2.39058 -3.04717
ltoes 26.9684
803
root 5.81433 18.9453 4.13729 -171.676 260.176 -170.235
lowerback 5.67456 4.94009 -2.5713
upperback -0.926805 6.27865 -2.60071
thorax -4.11404 3.13744 -1.83101
lowerneck -7.18516 -9.21535 -3.8887
upperneck 1.65292 -12.1435 4.52729
head 2.31854 -5.97921 1.55025
rclavicle -5.43925e-014 1.99282e-014
rhumerus 28.9626 19.0455 -59.9323
rradius 78.8116
rwrist -2.83714
rhand -33.3017 -31.1857
rfingers 7.12502
rthumb -6.50549 298.934
lclavicle -5.43925e-014 1.99282e-014
lhumerus -27.5671 -34.5621 27.2812
lradius 75.2076
lwrist 22.1029
lhand -23.5521 -6.27552
lfingers 7.12502
lthumb 2.90994 23.6844
rfemur -12.4499 -1.38548 -3.11953
rtibia -2.94201e-014
rfoot 21.1699 -23.1819
rtoes 8.17473
lfemur -43.5818 8.98066 17.9661
ltibia 94.7961
lfoot 2.3016 -2.65776
ltoes 27.3148
804
root 5.85413 19.0898 4.40339 -172.947 261.834 -168.772
lowerback 5.81475 5.01671 -2.35284
upperback -0.92707 6.39376 -2.55625
thorax -4.17302 3.19027 -1.92907
lowerneck -7.22096 -9.30937 -4.04612
upperneck 1.59389 -12.2517 4.50905
head 2.32005 -6.03513 1.56347
rclavicle 5.15101e-014 -2.90226e-014
rhumerus 30.8581 21.572 -61.1767
rradius 77.9485
rwrist -3.57226
rhand -32.516 -31.2866
rfingers 7.12502
rthumb -5.74692 298.811
lclavicle 5.15101e-014 -2.90226e-014
lhumerus -28.9222 -34.7665 28.7159
lradius 74.0316
lwrist 22.8754
lhand -23.0718 -6.00246
lfingers 7.12502
lthumb 3.37378 23.9506
rfemur -12.5928 -2.24648 -3.13156
rtibia -7.95139e-016
rfoot 19.9688 -25.9525
rtoes 12.245
lfemur -42.684 7.06789 17.1927
ltibia 91.0734
lfoot 2.09929 -2.40237
ltoes 27.8622
